<svg xmlns="http://www.w3.org/2000/svg" viewBox="0 0 512 512">
  <!-- Cat Head Icon -->
  <!-- White cat on black background -->

  <!-- Black background -->
  <rect width="512" height="512" fill="#000000"/>

  <!-- Left ear -->
  <polygon points="120,200 170,80 220,200" fill="#ffffff"/>

  <!-- Right ear -->
  <polygon points="292,200 342,80 392,200" fill="#ffffff"/>

  <!-- Head (circle) -->
  <circle cx="256" cy="300" r="150" fill="#ffffff"/>

  <!-- Left eye -->
  <ellipse cx="200" cy="280" rx="20" ry="30" fill="#000000"/>

  <!-- Right eye -->
  <ellipse cx="312" cy="280" rx="20" ry="30" fill="#000000"/>

  <!-- Nose -->
  <polygon points="256,320 240,350 272,350" fill="#000000"/>

  <!-- Mouth -->
  <path d="M240,360 Q256,380 272,360" stroke="#000000" stroke-width="6" fill="none"/>

  <!-- Left whiskers -->
  <line x1="180" y1="330" x2="80" y2="310" stroke="#000000" stroke-width="4"/>
  <line x1="180" y1="345" x2="80" y2="345" stroke="#000000" stroke-width="4"/>
  <line x1="180" y1="360" x2="80" y2="380" stroke="#000000" stroke-width="4"/>

  <!-- Right whiskers -->
  <line x1="332" y1="330" x2="432" y2="310" stroke="#000000" stroke-width="4"/>
  <line x1="332" y1="345" x2="432" y2="345" stroke="#000000" stroke-width="4"/>
  <line x1="332" y1="360" x2="432" y2="380" stroke="#000000" stroke-width="4"/>
</svg>
